<svg width="24" height="24" viewBox="0 0 24 24" fill="none" xmlns="http://www.w3.org/2000/svg">
<g id="access_time_filled">
<path id="Vector" d="M11.991 3C7.023 3 3 7.032 3 12C3 16.968 7.023 21 11.991 21C16.968 21 21 16.968 21 12C21 7.032 16.968 3 11.991 3ZM15.6 15.6C15.249 15.951 14.682 15.951 14.331 15.6L11.37 12.639C11.199 12.468 11.1 12.243 11.1 12V8.4C11.1 7.905 11.505 7.5 12 7.5C12.495 7.5 12.9 7.905 12.9 8.4V11.631L15.6 14.331C15.951 14.682 15.951 15.249 15.6 15.6Z" fill="#8E8E93"/>
</g>
</svg>
