<svg width="54" height="72" viewBox="0 0 54 72" fill="none" xmlns="http://www.w3.org/2000/svg">
<path id="Vector 10" d="M41.5007 53L42.5614 54.0607L41.5007 53ZM15.9999 64C15.9999 68.4183 12.4182 72 7.9999 72C3.58162 72 -9.91821e-05 68.4183 -9.91821e-05 64C-9.91821e-05 59.5817 3.58162 56 7.9999 56C12.4182 56 15.9999 59.5817 15.9999 64ZM47.8864 0.427017C50.5226 6.80478 53.1576 16.1772 53.1745 25.9486C53.1914 35.733 50.5775 46.0449 42.5614 54.0607L40.4401 51.9393C47.7214 44.6583 50.1905 35.2202 50.1745 25.9538C50.1584 16.6744 47.6445 7.69522 45.1139 1.57298L47.8864 0.427017ZM42.5614 54.0607C40.5027 56.1193 37.4733 57.9268 34.1512 59.4563C30.806 60.9965 27.0576 62.3027 23.4714 63.3182C19.8856 64.3337 16.4267 65.0684 13.652 65.4544C12.2675 65.6471 11.0241 65.757 10.0057 65.7656C9.49683 65.7698 9.01863 65.7491 8.59309 65.6933C8.1881 65.6402 7.73302 65.5436 7.3291 65.3417L8.6707 62.6584C8.6418 62.6439 8.71798 62.684 8.98318 62.7188C9.22781 62.7509 9.55872 62.7692 9.98053 62.7657C10.8235 62.7586 11.9278 62.6654 13.2386 62.4831C15.8547 62.1191 19.1772 61.4163 22.654 60.4318C26.1305 59.4473 29.726 58.191 32.8966 56.7312C36.0904 55.2607 38.7486 53.6307 40.4401 51.9393L42.5614 54.0607Z" fill="#2A1F38"/>
</svg>
